<svg xmlns="http://www.w3.org/2000/svg" width="455.687" height="184.075"><path fill="#FFF" d="M68.206 0S40.46 27.624 12.472 38.55c0 0 1.299.454 7.987-.674 0 0 1.122-.842 1.176 2.871l.503 34.466-14.842 11.35 11.56 7.873 1.253 64.623s6.868 4.229 12.486-13.481l1.157-111.361 10.716-7.579-2.133 129.313s-2.798 20.145-15.133 22.798c0 0-9.254 1.685-16.28-13.369 0 0-2.036-12.342-5.438-12.292 0 0-3.088.354-4.89 4.094-1.801 3.735-.839 27.229 22.355 26.89 23.194-.339 29.619-26.414 29.619-26.414l2.93-11.177-.772-52.877 15.323-9.813-14.67-9.063L57.334 18.1l4.285-3.157 19.435 17.656 10.361-10.667L68.206 0z"/><path fill="#FFF" d="M73.952 78.139l12.599-12.972 5.918 9.814 11.411-9.655 9.26 12.653-8.971 7.146-7.963-8.549-6.108 5.453 1.721 4.927-.18 44.141s.09 6.186 2.565 6.149c2.474-.036 7.734-7.125 7.734-7.125l2.51 2.438-14.036 13.405S78.95 137.88 78.847 130.87c-.103-7.012 2.128-52.009 2.128-52.009s-.443-2.057-1.886-2.036c-1.444.021-3.464 2.938-3.464 2.938l-1.673-1.624zM160.289 128.65l-5.29 5.026-3.354-3.662s-.418-42.691-.156-53.009c.263-10.316-9.272-13.477-13.603-13.414s-17.948 13.875-17.948 13.875l-4.95.071.186 55.071 4.645 7.356c3.597 6.135 7.658 1.744 7.658 1.744l13.668-10.308.246 2.68 9.219 9.765 11.772-12.959-2.093-2.236zm-29.424 4.967c-4.743.069-3.77-3.864-3.77-3.864l.269-52.187 7.958-5.893c3.294-.461 3.988 4.685 3.988 4.685l.953 51.14c.001 0-4.655 6.049-9.398 6.119zM157.407 72.589l13.241-11.331s8.078 2.357 7.796 11.231L195.4 61.308s8.51 3.587 8.616 10.807c.105 7.218-.058 52.597-.058 52.597s.703 5.764 4.622 5.707l3.47-2.525 2.311 2.854-13.031 11.742s-9.167-6.263-9.239-11.21c-.072-4.95-.419-56.924-.419-56.924s-.975-10.298-11.701 3.885l-1.95 64.176-12.374.181.253-67.452s-.057-3.918-1.708-3.894c-1.65.024-4.891 3.99-4.891 3.99l-1.894-2.653z"/><path fill="#FFF" d="M255.841 122.421l-.207-48.672c-2.681-11.137-15.879-13.405-15.879-13.405-2.475 2.887-16.086 12.375-16.086 12.375l-7.013 2.268s.412 42.691.412 53.622c0 10.93 6.601 13.2 6.601 13.2l-25.162 25.16c-.207 3.094 4.125 3.713 4.125 3.713 5.155-4.744 24.748-12.993 32.174-12.993 7.424 0 11.962 5.98 11.962 5.98l20.417-19.798c-9.899-3.301-11.344-21.45-11.344-21.45zm-27.223-45.579s2.476-7.011 9.281-7.011c0 0 6.599-.207 6.599 7.218 0 7.424 1.032 44.342 1.032 44.342l-11.137 11.755s-6.394-1.443-6.394-7.012.619-49.292.619-49.292zm21.448 73.833c-22.273-7.836-30.729 9.281-34.44 9.281-3.713 0-2.27-1.65-2.27-1.65l30.317-29.284c-3.918 3.093 8.868 19.593 8.868 19.593l-2.475 2.06zM288.84 133.353s-9.487-1.65-8.869-9.694l-.206-20.417 25.986-21.243L289.665 58.9 269.04 75.605v49.292s4.538 17.736 14.024 17.736l16.087-13.406-1.444-3.3-8.867 7.426zm-8.043-62.285l2.268-1.032 10.519 17.324-12.786 9.899V71.068zM331.325 1.771l-6.394.413-8.456 6.6-9.898 3.506-.413 2.269 5.363 2.062 1.236 49.703.619 55.067s-1.855 12.992 10.724 17.942l13.2-10.106-2.474-2.681-5.57 3.713s-2.681.618-3.506-7.838l-1.855-109.1s.825-8.662 7.424-11.55zM349.062 31.264l8.661 8.868-12.786 11.344s-4.331 2.476-2.888-2.27c1.445-4.743 7.013-17.942 7.013-17.942zM347.618 58.281l-12.375 9.487.825 2.475s5.363-5.363 7.219-3.093v21.241l.412 37.742s2.27 13.199 9.694 13.199l12.374-11.137-1.032-1.444s-2.062 3.713-4.536 3.713c0 0-6.188-2.063-6.188-9.074 0-7.014-.412-52.798-.412-52.798s.825-3.093-1.03-4.95c-1.859-1.855-4.951-5.361-4.951-5.361zM393.816 55.394l-21.243 17.942 2.681 46.199s.825 8.661 3.918 11.342c3.095 2.681 7.838 5.98 7.838 5.98l17.118-12.993-1.444-1.648-8.249 7.011s-8.662-1.237-9.487-9.898c-.825-8.662-.825-48.26-.825-48.26s.413-10.725 5.156-3.3 8.663 12.374 8.663 12.374l9.692-7.631-13.818-17.118zM442.693 54.568l-5.155 5.568s-18.148 9.487-21.036 8.249l.412 53.83s7.012 15.055 10.313 15.467c0 0 27.843-16.705 27.843-18.354l.618-49.085c-.001 0-3.095-15.675-12.995-15.675zm.827 63.728c0 3.507-5.568 9.281-9.076 9.281-3.506 0-7.218-5.981-7.218-5.981s.207-44.134.207-50.322c0-6.186 8.249-8.043 8.249-8.043 6.393 0 8.043 4.125 8.043 4.125s-.205 47.434-.205 50.94z"/></svg>
